<svg viewBox="0 0 1278 1222" xmlns="http://www.w3.org/2000/svg" xmlns:xlink="http://www.w3.org/1999/xlink">
<g transform="translate(639,611)">
<polygon points="0,0 -20,0 -30,17.32050807568877 -47.32050807568878,7.320508075688773 -47.32050807568878,-12.679491924311229 -67.32050807568878,-12.679491924311229 -77.32050807568878,-30 -60,-40 -42.67949192431122,-30 -32.67949192431123,-47.320508075688785 -12.679491924311229,-47.320508075688785 7.320508075688772,-47.320508075688785 17.32050807568878,-30 0,-20" stroke="black" stroke-weight="0.1" fill="rgb(255
,242,0)" />
<polygon points="30.000000000000007,17.320508075688757 20.000000000000007,-1.4210854715202004e-14 7.105427357601002e-15,-1.4210854715202004e-14 0,-20.000000000000014 17.32050807568877,-30.00000000000002 7.320508075688771,-47.320508075688785 17.320508075688767,-64.64101615137756 34.64101615137754,-54.64101615137756 34.64101615137755,-34.64101615137756 54.641016151377556,-34.64101615137757 64.64101615137756,-17.3205080756888 74.64101615137756,-2.842170943040401e-14 64.64101615137756,17.320508075688757 47.32050807568878,7.320508075688755" stroke="black" stroke-weight="0.1" fill="rgb(220
,220,220)" />
<polygon points="64.64101615137756,-17.32050807568879 54.641016151377556,-34.641016151377556 34.641016151377556,-34.641016151377556 34.64101615137755,-54.641016151377556 51.96152422706632,-64.64101615137757 41.96152422706632,-81.96152422706633 51.96152422706632,-99.28203230275511 69.28203230275508,-89.28203230275511 69.2820323027551,-69.28203230275511 89.28203230275511,-69.28203230275511 99.28203230275511,-51.96152422706635 109.28203230275511,-34.64101615137757 99.28203230275511,-17.320508075688785 81.96152422706632,-27.320508075688792" stroke="black" stroke-weight="0.1" fill="rgb(255
,242,0)" />
<polygon points="64.64101615137757,17.320508075688753 74.64101615137757,-2.1316282072803006e-14 64.64101615137757,-17.32050807568879 81.96152422706633,-27.320508075688796 99.28203230275511,-17.320508075688803 109.28203230275511,-34.64101615137757 129.2820323027551,-34.641016151377585 129.2820323027551,-14.641016151377574 111.96152422706633,-4.641016151377574 121.96152422706635,12.679491924311204 111.96152422706635,29.99999999999998 101.96152422706636,47.32050807568875 81.96152422706635,47.32050807568876 81.96152422706635,27.32050807568875" stroke="black" stroke-weight="0.1" fill="rgb(0
,255,0)" />
<polygon points="34.64101615137758,34.64101615137753 54.64101615137758,34.64101615137753 64.64101615137757,17.320508075688753 81.96152422706635,27.32050807568875 81.96152422706635,47.32050807568875 101.96152422706635,47.32050807568875 111.96152422706635,64.64101615137751 94.64101615137758,74.64101615137753 77.3205080756888,64.64101615137753 67.32050807568882,81.9615242270663 47.320508075688814,81.96152422706632 27.320508075688814,81.96152422706632 17.3205080756888,64.64101615137753 34.64101615137758,54.64101615137753" stroke="black" stroke-weight="0.1" fill="rgb(245
,245,220)" />
<polygon points="47.320508075688814,81.9615242270663 67.32050807568882,81.9615242270663 77.3205080756888,64.64101615137753 94.64101615137758,74.64101615137753 94.64101615137758,94.64101615137753 114.64101615137758,94.64101615137753 124.64101615137758,111.96152422706629 107.32050807568882,121.96152422706629 90.00000000000004,111.9615242270663 80.00000000000006,129.28203230275508 60.00000000000005,129.28203230275508 40.00000000000005,129.28203230275508 30.000000000000036,111.9615242270663 47.320508075688814,101.9615242270663" stroke="black" stroke-weight="0.1" fill="rgb(135
,206,250)" />
<polygon points="17.320508075688785,64.64101615137756 27.320508075688792,81.96152422706632 47.32050807568879,81.96152422706632 47.32050807568881,101.96152422706632 30.00000000000004,111.96152422706632 40.00000000000004,129.2820323027551 30.000000000000057,146.60254037844388 12.679491924311279,136.60254037844388 12.679491924311264,116.60254037844388 -7.320508075688746,116.60254037844389 -17.320508075688757,99.28203230275513 -27.320508075688764,81.96152422706636 -17.320508075688764,64.64101615137757 1.7763568394002505e-14,74.64101615137757" stroke="black" stroke-weight="0.1" fill="rgb(0
,255,0)" />
<polygon points="-64.64101615137756,51.961524227066356 -54.641016151377556,34.641016151377585 -64.64101615137756,17.320508075688814 -47.32050807568879,7.320508075688807 -30.000000000000014,17.3205080756888 -20.00000000000002,2.842170943040401e-14 -2.842170943040401e-14,1.4210854715202004e-14 -1.4210854715202004e-14,20.00000000000003 -17.320508075688792,30.00000000000003 -7.320508075688778,47.32050807568881 -17.32050807568877,64.64101615137758 -27.320508075688764,81.96152422706635 -47.320508075688785,81.96152422706636 -47.32050807568878,61.96152422706635" stroke="black" stroke-weight="0.1" fill="rgb(255
,255,255)" />
<polygon points="-17.320508075688792,30.00000000000003 -2.1316282072803006e-14,20.000000000000025 -2.4868995751603507e-14,2.4868995751603507e-14 19.99999999999998,2.1316282072803006e-14 29.999999999999986,17.320508075688792 47.32050807568875,7.320508075688785 64.64101615137753,17.32050807568878 54.64101615137753,34.641016151377556 34.64101615137753,34.64101615137757 34.64101615137754,54.64101615137757 17.320508075688764,64.64101615137758 -3.552713678800501e-15,74.64101615137758 -17.320508075688792,64.64101615137758 -7.320508075688789,47.3205080756888" stroke="black" stroke-weight="0.1" fill="rgb(255
,255,255)" />
</g>
</svg>
