<svg viewBox="0 0 1278 1222" xmlns="http://www.w3.org/2000/svg" xmlns:xlink="http://www.w3.org/1999/xlink">
<g transform="translate(639,611)">
<polygon points="0,0 20,0 30,17.32050807568877 47.32050807568878,7.320508075688773 47.32050807568878,-12.679491924311229 67.32050807568878,-12.679491924311229 77.32050807568878,-30 60,-40 42.67949192431122,-30 32.67949192431123,-47.320508075688785 12.679491924311229,-47.320508075688785 -7.320508075688772,-47.320508075688785 -17.32050807568878,-30 0,-20" stroke="black" stroke-weight="0.1" fill="rgb(0
,255,255)" />
<polygon points="-30.000000000000007,17.320508075688757 -20.000000000000007,-1.4210854715202004e-14 -7.105427357601002e-15,-1.4210854715202004e-14 0,-20.000000000000014 -17.32050807568877,-30.00000000000002 -7.320508075688771,-47.320508075688785 -17.320508075688767,-64.64101615137756 -34.64101615137754,-54.64101615137756 -34.64101615137755,-34.64101615137756 -54.641016151377556,-34.64101615137757 -64.64101615137756,-17.3205080756888 -74.64101615137756,-2.842170943040401e-14 -64.64101615137756,17.320508075688757 -47.32050807568878,7.320508075688755" stroke="black" stroke-weight="0.1" fill="rgb(220
,220,220)" />
<polygon points="-64.64101615137756,-17.32050807568879 -54.641016151377556,-34.641016151377556 -34.641016151377556,-34.641016151377556 -34.64101615137755,-54.641016151377556 -51.96152422706632,-64.64101615137757 -41.96152422706632,-81.96152422706633 -51.96152422706632,-99.28203230275511 -69.28203230275508,-89.28203230275511 -69.2820323027551,-69.28203230275511 -89.28203230275511,-69.28203230275511 -99.28203230275511,-51.96152422706635 -109.28203230275511,-34.64101615137757 -99.28203230275511,-17.320508075688785 -81.96152422706632,-27.320508075688792" stroke="black" stroke-weight="0.1" fill="rgb(135
,206,250)" />
<polygon points="-64.64101615137757,17.320508075688753 -74.64101615137757,-2.1316282072803006e-14 -64.64101615137757,-17.32050807568879 -81.96152422706633,-27.320508075688796 -99.28203230275511,-17.320508075688803 -109.28203230275511,-34.64101615137757 -129.2820323027551,-34.641016151377585 -129.2820323027551,-14.641016151377574 -111.96152422706633,-4.641016151377574 -121.96152422706635,12.679491924311204 -111.96152422706635,29.99999999999998 -101.96152422706636,47.32050807568875 -81.96152422706635,47.32050807568876 -81.96152422706635,27.32050807568875" stroke="black" stroke-weight="0.1" fill="rgb(0
,255,0)" />
<polygon points="-34.64101615137758,34.64101615137753 -54.64101615137758,34.64101615137753 -64.64101615137757,17.320508075688753 -81.96152422706635,27.32050807568875 -81.96152422706635,47.32050807568875 -101.96152422706635,47.32050807568875 -111.96152422706635,64.64101615137751 -94.64101615137758,74.64101615137753 -77.3205080756888,64.64101615137753 -67.32050807568882,81.9615242270663 -47.320508075688814,81.96152422706632 -27.320508075688814,81.96152422706632 -17.3205080756888,64.64101615137753 -34.64101615137758,54.64101615137753" stroke="black" stroke-weight="0.1" fill="rgb(245
,245,220)" />
<polygon points="-47.320508075688814,81.9615242270663 -67.32050807568882,81.9615242270663 -77.3205080756888,64.64101615137753 -94.64101615137758,74.64101615137753 -94.64101615137758,94.64101615137753 -114.64101615137758,94.64101615137753 -124.64101615137758,111.96152422706629 -107.32050807568882,121.96152422706629 -90.00000000000004,111.9615242270663 -80.00000000000006,129.28203230275508 -60.00000000000005,129.28203230275508 -40.00000000000005,129.28203230275508 -30.000000000000036,111.9615242270663 -47.320508075688814,101.9615242270663" stroke="black" stroke-weight="0.1" fill="rgb(0
,255,255)" />
<polygon points="-17.320508075688785,64.64101615137756 -27.320508075688792,81.96152422706632 -47.32050807568879,81.96152422706632 -47.32050807568881,101.96152422706632 -30.00000000000004,111.96152422706632 -40.00000000000004,129.2820323027551 -30.000000000000057,146.60254037844388 -12.679491924311279,136.60254037844388 -12.679491924311264,116.60254037844388 7.320508075688746,116.60254037844389 17.320508075688757,99.28203230275513 27.320508075688764,81.96152422706636 17.320508075688764,64.64101615137757 -1.7763568394002505e-14,74.64101615137757" stroke="black" stroke-weight="0.1" fill="rgb(0
,255,0)" />
<polygon points="64.64101615137756,51.961524227066356 54.641016151377556,34.641016151377585 64.64101615137756,17.320508075688814 47.32050807568879,7.320508075688807 30.000000000000014,17.3205080756888 20.00000000000002,2.842170943040401e-14 2.842170943040401e-14,1.4210854715202004e-14 1.4210854715202004e-14,20.00000000000003 17.320508075688792,30.00000000000003 7.320508075688778,47.32050807568881 17.32050807568877,64.64101615137758 27.320508075688764,81.96152422706635 47.320508075688785,81.96152422706636 47.32050807568878,61.96152422706635" stroke="black" stroke-weight="0.1" fill="rgb(255
,255,255)" />
<polygon points="17.320508075688792,30.00000000000003 2.1316282072803006e-14,20.000000000000025 2.4868995751603507e-14,2.4868995751603507e-14 -19.99999999999998,2.1316282072803006e-14 -29.999999999999986,17.320508075688792 -47.32050807568875,7.320508075688785 -64.64101615137753,17.32050807568878 -54.64101615137753,34.641016151377556 -34.64101615137753,34.64101615137757 -34.64101615137754,54.64101615137757 -17.320508075688764,64.64101615137758 3.552713678800501e-15,74.64101615137758 17.320508075688792,64.64101615137758 7.320508075688789,47.3205080756888" stroke="black" stroke-weight="0.1" fill="rgb(255
,255,255)" />
<polygon points="206.60254037844385,39.28203230275513 216.60254037844385,56.6025403784439 206.60254037844385,73.92304845413267 223.92304845413264,83.92304845413267 241.2435565298214,73.92304845413267 251.2435565298214,91.24355652982143 271.2435565298214,91.24355652982145 271.2435565298214,71.24355652982143 253.9230484541326,61.24355652982143 263.92304845413264,43.92304845413266 253.92304845413264,26.60254037844389 243.92304845413264,9.28203230275512 223.9230484541326,9.28203230275512 223.9230484541326,29.282032302755127" stroke="black" stroke-weight="0.1" fill="rgb(255
,242,0)" />
<polygon points="176.60254037844385,21.96152422706634 196.60254037844385,21.96152422706634 206.60254037844385,39.28203230275511 223.92304845413264,29.282032302755113 223.92304845413264,9.282032302755113 243.92304845413264,9.282032302755113 253.92304845413264,-8.038475772933658 236.60254037844385,-18.03847577293366 219.28203230275506,-8.038475772933658 209.28203230275508,-25.358983848622444 189.28203230275508,-25.358983848622444 169.28203230275508,-25.358983848622444 159.28203230275506,-8.038475772933658 176.60254037844385,1.9615242270663416" stroke="black" stroke-weight="0.1" fill="rgb(220
,220,220)" />
<polygon points="189.28203230275508,-25.35898384862243 209.28203230275508,-25.35898384862243 219.28203230275508,-8.038475772933658 236.60254037844385,-18.03847577293366 236.60254037844385,-38.03847577293366 256.60254037844385,-38.03847577293366 266.60254037844385,-55.35898384862243 249.28203230275508,-65.35898384862243 231.96152422706632,-55.35898384862243 221.96152422706632,-72.67949192431121 201.96152422706632,-72.67949192431121 181.96152422706632,-72.67949192431121 171.9615242270663,-55.35898384862243 189.28203230275508,-45.35898384862243" stroke="black" stroke-weight="0.1" fill="rgb(255
,242,0)" />
<polygon points="159.28203230275506,-8.038475772933666 169.28203230275506,-25.358983848622437 189.28203230275506,-25.358983848622437 189.28203230275506,-45.35898384862244 171.9615242270663,-55.358983848622444 181.9615242270663,-72.67949192431121 171.9615242270663,-89.99999999999999 154.64101615137753,-79.99999999999999 154.64101615137753,-59.999999999999986 134.6410161513775,-59.99999999999999 124.6410161513775,-42.67949192431122 114.6410161513775,-25.35898384862245 124.6410161513775,-8.038475772933664 141.9615242270663,-18.038475772933666" stroke="black" stroke-weight="0.1" fill="rgb(0
,255,0)" />
<polygon points="159.28203230275506,26.60254037844387 149.28203230275506,9.282032302755098 159.28203230275506,-8.038475772933673 141.96152422706626,-18.03847577293368 124.6410161513775,-8.038475772933673 114.6410161513775,-25.35898384862245 94.64101615137751,-25.35898384862245 94.64101615137751,-5.358983848622444 111.96152422706629,4.641016151377556 101.96152422706628,21.96152422706633 111.96152422706628,39.282032302755105 121.96152422706628,56.60254037844388 141.9615242270663,56.60254037844388 141.9615242270663,36.60254037844387" stroke="black" stroke-weight="0.1" fill="rgb(245
,245,220)" />
<polygon points="111.9615242270663,39.2820323027551 101.9615242270663,21.961524227066327 111.9615242270663,4.641016151377556 94.64101615137753,-5.358983848622451 77.32050807568876,4.641016151377556 67.32050807568876,-12.679491924311222 47.320508075688764,-12.679491924311222 47.320508075688764,7.320508075688785 64.64101615137754,17.320508075688785 54.64101615137753,34.641016151377556 64.64101615137753,51.961524227066334 74.64101615137753,69.2820323027551 94.64101615137754,69.28203230275511 94.64101615137753,49.2820323027551" stroke="black" stroke-weight="0.1" fill="rgb(135
,206,250)" />
<polygon points="141.9615242270663,56.602540378443905 121.96152422706629,56.6025403784439 111.96152422706629,39.28203230275513 94.64101615137751,49.28203230275511 94.6410161513775,69.28203230275511 74.64101615137751,69.28203230275511 64.6410161513775,86.60254037844388 81.96152422706628,96.60254037844388 99.28203230275506,86.60254037844389 109.28203230275506,103.92304845413267 129.28203230275506,103.92304845413268 149.28203230275506,103.9230484541327 159.28203230275506,86.6025403784439 141.9615242270663,76.6025403784439" stroke="black" stroke-weight="0.1" fill="rgb(0
,255,0)" />
<polygon points="193.9230484541326,121.24355652982148 203.9230484541326,103.9230484541327 223.9230484541326,103.9230484541327 223.9230484541326,83.9230484541327 206.60254037844385,73.9230484541327 216.60254037844385,56.60254037844393 206.60254037844385,39.282032302755155 189.28203230275508,49.282032302755155 189.28203230275506,69.28203230275516 169.28203230275506,69.28203230275514 159.28203230275506,86.60254037844392 149.28203230275506,103.9230484541327 159.28203230275506,121.24355652982148 176.60254037844385,111.24355652982148" stroke="black" stroke-weight="0.1" fill="rgb(255
,255,255)" />
<polygon points="189.28203230275506,69.28203230275516 189.28203230275506,49.282032302755155 206.60254037844385,39.282032302755155 196.60254037844385,21.961524227066377 176.60254037844385,21.961524227066377 176.60254037844385,1.961524227066377 159.28203230275508,-8.038475772933637 149.28203230275506,9.282032302755141 159.28203230275506,26.602540378443926 141.96152422706626,36.60254037844391 141.96152422706626,56.60254037844391 141.96152422706626,76.60254037844392 159.28203230275506,86.60254037844393 169.28203230275506,69.28203230275516" stroke="black" stroke-weight="0.1" fill="rgb(255
,255,255)" />
<polygon points="279.2820323027551,-137.32050807568874 289.2820323027551,-119.99999999999997 279.2820323027551,-102.6794919243112 296.6025403784439,-92.67949192431118 313.92304845413264,-102.6794919243112 323.92304845413264,-85.35898384862242 343.92304845413264,-85.35898384862242 343.92304845413264,-105.35898384862243 326.6025403784439,-115.35898384862243 336.6025403784439,-132.6794919243112 326.6025403784439,-149.99999999999997 316.6025403784439,-167.32050807568874 296.6025403784439,-167.32050807568874 296.6025403784439,-147.32050807568874" stroke="black" stroke-weight="0.1" fill="rgb(0
,255,255)" />
<polygon points="249.2820323027551,-154.64101615137753 269.2820323027551,-154.64101615137753 279.2820323027551,-137.32050807568876 296.6025403784439,-147.32050807568876 296.6025403784439,-167.32050807568876 316.6025403784439,-167.32050807568876 326.6025403784439,-184.64101615137753 309.2820323027551,-194.64101615137753 291.9615242270663,-184.64101615137753 281.9615242270663,-201.96152422706632 261.9615242270663,-201.96152422706632 241.96152422706635,-201.96152422706632 231.96152422706632,-184.64101615137753 249.2820323027551,-174.64101615137753" stroke="black" stroke-weight="0.1" fill="rgb(220
,220,220)" />
<polygon points="261.9615242270663,-201.9615242270663 281.9615242270663,-201.9615242270663 291.9615242270663,-184.64101615137753 309.2820323027551,-194.64101615137753 309.2820323027551,-214.64101615137753 329.2820323027551,-214.64101615137753 339.2820323027551,-231.9615242270663 321.9615242270663,-241.9615242270663 304.6410161513775,-231.9615242270663 294.6410161513775,-249.28203230275508 274.6410161513775,-249.28203230275508 254.64101615137756,-249.28203230275508 244.64101615137753,-231.9615242270663 261.9615242270663,-221.9615242270663" stroke="black" stroke-weight="0.1" fill="rgb(135
,206,250)" />
<polygon points="231.96152422706632,-184.64101615137753 241.96152422706632,-201.9615242270663 261.9615242270663,-201.9615242270663 261.9615242270663,-221.9615242270663 244.64101615137756,-231.96152422706632 254.64101615137756,-249.28203230275506 244.64101615137756,-266.60254037844385 227.3205080756888,-256.60254037844385 227.3205080756888,-236.60254037844385 207.32050807568876,-236.60254037844385 197.32050807568876,-219.28203230275508 187.32050807568876,-201.96152422706632 197.32050807568876,-184.64101615137753 214.64101615137756,-194.64101615137753" stroke="black" stroke-weight="0.1" fill="rgb(0
,255,0)" />
<polygon points="231.96152422706632,-150 221.96152422706632,-167.32050807568876 231.96152422706632,-184.64101615137753 214.64101615137753,-194.64101615137756 197.32050807568876,-184.64101615137753 187.32050807568876,-201.96152422706632 167.3205080756888,-201.96152422706632 167.3205080756888,-181.96152422706632 184.64101615137756,-171.96152422706632 174.64101615137753,-154.64101615137753 184.64101615137753,-137.32050807568876 194.64101615137753,-120 214.64101615137756,-120 214.64101615137756,-140" stroke="black" stroke-weight="0.1" fill="rgb(245
,245,220)" />
<polygon points="184.64101615137758,-137.32050807568876 174.64101615137758,-154.64101615137753 184.64101615137758,-171.96152422706632 167.3205080756888,-181.96152422706632 150.00000000000003,-171.96152422706632 140.00000000000003,-189.28203230275508 120.00000000000004,-189.28203230275508 120.00000000000004,-169.28203230275508 137.32050807568882,-159.28203230275508 127.3205080756888,-141.9615242270663 137.3205080756888,-124.64101615137753 147.3205080756888,-107.32050807568876 167.32050807568882,-107.32050807568876 167.32050807568882,-127.32050807568876" stroke="black" stroke-weight="0.1" fill="rgb(0
,255,255)" />
<polygon points="214.64101615137756,-119.99999999999996 194.64101615137756,-119.99999999999997 184.64101615137756,-137.32050807568874 167.3205080756888,-127.32050807568875 167.32050807568876,-107.32050807568875 147.3205080756888,-107.32050807568875 137.32050807568876,-89.99999999999999 154.64101615137753,-79.99999999999997 171.96152422706632,-89.99999999999997 181.96152422706632,-72.67949192431118 201.96152422706632,-72.67949192431118 221.96152422706632,-72.67949192431118 231.96152422706632,-89.99999999999994 214.64101615137756,-99.99999999999996" stroke="black" stroke-weight="0.1" fill="rgb(0
,255,0)" />
<polygon points="266.60254037844385,-55.35898384862239 276.60254037844385,-72.67949192431115 296.60254037844385,-72.67949192431115 296.60254037844385,-92.67949192431115 279.28203230275506,-102.67949192431117 289.28203230275506,-119.99999999999993 279.2820323027551,-137.3205080756887 261.9615242270663,-127.3205080756887 261.9615242270663,-107.3205080756887 241.9615242270663,-107.3205080756887 231.9615242270663,-89.99999999999994 221.9615242270663,-72.67949192431118 231.9615242270663,-55.35898384862239 249.28203230275508,-65.35898384862239" stroke="black" stroke-weight="0.1" fill="rgb(255
,255,255)" />
<polygon points="261.9615242270663,-107.3205080756887 261.9615242270663,-127.3205080756887 279.2820323027551,-137.3205080756887 269.2820323027551,-154.64101615137747 249.2820323027551,-154.64101615137747 249.2820323027551,-174.64101615137747 231.96152422706635,-184.6410161513775 221.96152422706632,-167.32050807568874 231.96152422706632,-149.99999999999994 214.64101615137753,-139.99999999999994 214.64101615137753,-119.99999999999994 214.64101615137753,-99.99999999999994 231.96152422706632,-89.99999999999993 241.96152422706632,-107.3205080756887" stroke="black" stroke-weight="0.1" fill="rgb(255
,255,255)" />
<polygon points="348.5640646055101,61.24355652982146 338.5640646055101,78.56406460551024 318.5640646055101,78.56406460551024 318.5640646055101,98.56406460551025 335.8845726811989,108.56406460551024 325.8845726811989,125.88457268119902 335.8845726811989,143.2050807568878 353.2050807568877,133.20508075688778 353.2050807568877,113.20508075688778 373.2050807568877,113.20508075688778 383.2050807568877,95.88457268119902 393.2050807568877,78.56406460551023 383.20508075688764,61.24355652982145 365.8845726811989,71.24355652982146" stroke="black" stroke-weight="0.1" fill="rgb(0
,255,255)" />
<polygon points="348.5640646055101,26.602540378443912 358.5640646055101,43.92304845413268 348.5640646055101,61.243556529821454 365.8845726811989,71.24355652982146 383.20508075688764,61.243556529821454 393.20508075688764,78.56406460551023 413.20508075688764,78.56406460551023 413.20508075688764,58.564064605510225 395.88457268119885,48.564064605510225 405.8845726811989,31.24355652982145 395.8845726811989,13.923048454132678 385.8845726811989,-3.3974596215560915 365.88457268119885,-3.397459621556095 365.8845726811989,16.602540378443912" stroke="black" stroke-weight="0.1" fill="rgb(220
,220,220)" />
<polygon points="395.8845726811989,13.923048454132683 405.8845726811989,31.243556529821454 395.8845726811989,48.564064605510225 413.2050807568877,58.56406460551023 430.52558883257643,48.564064605510225 440.52558883257643,65.884572681199 460.52558883257643,65.884572681199 460.52558883257643,45.884572681198996 443.2050807568877,35.884572681198996 453.2050807568877,18.56406460551022 443.2050807568877,1.2435565298214488 433.2050807568877,-16.07695154586732 413.2050807568877,-16.076951545867324 413.2050807568877,3.923048454132683" stroke="black" stroke-weight="0.1" fill="rgb(0
,255,255)" />
<polygon points="365.8845726811989,-3.397459621556095 385.8845726811989,-3.397459621556095 395.8845726811989,13.923048454132676 413.2050807568877,3.9230484541326778 413.2050807568877,-16.076951545867324 433.2050807568877,-16.076951545867324 443.2050807568877,-33.397459621556095 425.8845726811989,-43.397459621556095 408.5640646055101,-33.397459621556095 398.5640646055101,-50.71796769724488 378.5640646055101,-50.71796769724488 358.5640646055101,-50.71796769724488 348.5640646055101,-33.397459621556095 365.8845726811989,-23.397459621556095" stroke="black" stroke-weight="0.1" fill="rgb(0
,255,0)" />
<polygon points="335.8845726811989,13.923048454132669 345.8845726811989,-3.3974596215561057 365.8845726811989,-3.3974596215561093 365.8845726811989,-23.39745962155611 348.5640646055101,-33.39745962155611 358.5640646055101,-50.71796769724489 348.5640646055101,-68.03847577293367 331.2435565298214,-58.03847577293365 331.2435565298214,-38.03847577293365 311.2435565298213,-38.03847577293365 301.2435565298213,-20.71796769724488 291.2435565298214,-3.3974596215561057 301.2435565298214,13.923048454132681 318.5640646055101,3.9230484541326707" stroke="black" stroke-weight="0.1" fill="rgb(245
,245,220)" />
<polygon points="301.2435565298214,-20.717967697244873 311.2435565298214,-38.03847577293365 331.2435565298214,-38.03847577293365 331.2435565298214,-58.03847577293365 313.9230484541326,-68.03847577293365 323.9230484541326,-85.35898384862243 313.9230484541326,-102.67949192431121 296.6025403784438,-92.6794919243112 296.60254037844385,-72.6794919243112 276.6025403784438,-72.6794919243112 266.6025403784438,-55.35898384862242 256.6025403784438,-38.03847577293365 266.60254037844385,-20.71796769724486 283.9230484541326,-30.717967697244873" stroke="black" stroke-weight="0.1" fill="rgb(135
,206,250)" />
<polygon points="301.2435565298213,13.923048454132683 291.2435565298213,-3.3974596215560915 301.2435565298213,-20.71796769724486 283.9230484541326,-30.717967697244866 266.6025403784438,-20.717967697244873 256.6025403784438,-38.038475772933644 236.6025403784438,-38.038475772933666 236.6025403784438,-18.03847577293365 253.92304845413256,-8.038475772933648 243.92304845413253,9.282032302755123 253.92304845413253,26.602540378443898 263.9230484541325,43.92304845413267 283.9230484541325,43.92304845413268 283.9230484541325,23.923048454132676" stroke="black" stroke-weight="0.1" fill="rgb(0
,255,0)" />
<polygon points="271.2435565298213,91.24355652982146 291.2435565298213,91.24355652982146 301.2435565298213,108.56406460551023 318.5640646055101,98.56406460551024 318.5640646055101,78.56406460551023 338.5640646055101,78.56406460551023 348.5640646055101,61.24355652982146 331.2435565298213,51.24355652982146 313.9230484541325,61.24355652982146 303.9230484541325,43.923048454132676 283.9230484541325,43.923048454132676 263.9230484541325,43.923048454132676 253.92304845413253,61.24355652982146 271.2435565298213,71.24355652982146" stroke="black" stroke-weight="0.1" fill="rgb(255
,255,255)" />
<polygon points="313.9230484541325,61.24355652982146 331.2435565298213,51.24355652982146 348.56406460551005,61.24355652982146 358.5640646055101,43.92304845413269 348.5640646055101,26.602540378443912 365.88457268119885,16.60254037844392 365.88457268119885,-3.397459621556081 345.88457268119885,-3.397459621556081 335.88457268119885,13.923048454132697 318.56406460551005,3.923048454132676 301.2435565298213,13.923048454132676 283.9230484541325,23.92304845413267 283.9230484541325,43.92304845413269 303.9230484541325,43.92304845413268" stroke="black" stroke-weight="0.1" fill="rgb(255
,255,255)" />
<polygon points="211.24355652982138,220.52558883257655 191.24355652982138,220.52558883257655 181.24355652982138,203.20508075688778 163.92304845413258,213.20508075688778 163.92304845413258,233.20508075688778 143.92304845413258,233.20508075688778 133.92304845413258,250.52558883257655 151.24355652982138,260.52558883257655 168.56406460551017,250.52558883257655 178.56406460551017,267.84609690826534 198.56406460551014,267.84609690826534 218.56406460551017,267.84609690826534 228.56406460551017,250.52558883257655 211.24355652982138,240.52558883257655" stroke="black" stroke-weight="0.1" fill="rgb(255
,242,0)" />
<polygon points="241.24355652982138,203.20508075688778 231.24355652982138,220.52558883257655 211.24355652982138,220.52558883257655 211.24355652982138,240.52558883257655 228.56406460551014,250.52558883257655 218.56406460551014,267.84609690826534 228.56406460551014,285.16660498395413 245.8845726811989,275.16660498395413 245.88457268119893,255.1666049839541 265.8845726811989,255.1666049839541 275.88457268119896,237.84609690826534 285.88457268119896,220.52558883257657 275.8845726811989,203.20508075688778 258.56406460551017,213.20508075688778" stroke="black" stroke-weight="0.1" fill="rgb(220
,220,220)" />
<polygon points="275.88457268119896,237.84609690826534 265.88457268119896,255.1666049839541 245.88457268119896,255.1666049839541 245.88457268119896,275.16660498395413 263.20508075688775,285.16660498395413 253.20508075688772,302.48711305964287 263.20508075688775,319.80762113533166 280.5255888325765,309.80762113533166 280.5255888325765,289.80762113533166 300.5255888325765,289.80762113533166 310.52558883257655,272.48711305964287 320.52558883257655,255.16660498395413 310.5255888325765,237.84609690826534 293.20508075688775,247.84609690826534" stroke="black" stroke-weight="0.1" fill="rgb(255
,242,0)" />
<polygon points="275.88457268119896,203.20508075688778 285.88457268119896,220.52558883257655 275.88457268119896,237.84609690826534 293.20508075688775,247.84609690826534 310.5255888325765,237.84609690826534 320.5255888325765,255.1666049839541 340.5255888325765,255.16660498395413 340.5255888325765,235.1666049839541 323.2050807568877,225.1666049839541 333.20508075688775,207.84609690826534 323.20508075688775,190.52558883257655 313.20508075688775,173.20508075688778 293.20508075688775,173.20508075688778 293.20508075688775,193.20508075688778" stroke="black" stroke-weight="0.1" fill="rgb(0
,255,0)" />
<polygon points="245.88457268119896,185.88457268119902 265.88457268119896,185.88457268119902 275.88457268119896,203.20508075688778 293.20508075688775,193.20508075688778 293.20508075688775,173.20508075688778 313.20508075688775,173.20508075688778 323.20508075688775,155.88457268119902 305.88457268119896,145.88457268119902 288.56406460551017,155.88457268119902 278.56406460551017,138.56406460551023 258.56406460551017,138.56406460551023 238.5640646055102,138.56406460551023 228.56406460551017,155.88457268119902 245.88457268119896,165.88457268119902" stroke="black" stroke-weight="0.1" fill="rgb(245
,245,220)" />
<polygon points="258.56406460551017,138.56406460551023 278.56406460551017,138.56406460551023 288.56406460551017,155.884572681199 305.88457268119896,145.884572681199 305.88457268119896,125.88457268119899 325.88457268119896,125.88457268119899 335.88457268119896,108.56406460551023 318.56406460551017,98.56406460551023 301.2435565298214,108.56406460551023 291.2435565298214,91.24355652982143 271.2435565298214,91.24355652982143 251.2435565298214,91.24355652982143 241.24355652982138,108.56406460551023 258.56406460551017,118.56406460551023" stroke="black" stroke-weight="0.1" fill="rgb(135
,206,250)" />
<polygon points="228.56406460551017,155.884572681199 238.56406460551017,138.56406460551023 258.56406460551017,138.56406460551023 258.56406460551017,118.56406460551023 241.2435565298214,108.56406460551023 251.24355652982143,91.24355652982145 241.24355652982143,73.92304845413267 223.92304845413264,83.92304845413267 223.92304845413264,103.92304845413267 203.92304845413264,103.92304845413265 193.92304845413264,121.24355652982142 183.9230484541326,138.5640646055102 193.9230484541326,155.884572681199 211.2435565298214,145.884572681199" stroke="black" stroke-weight="0.1" fill="rgb(255
,160,122)" />
<polygon points="146.60254037844382,168.5640646055102 156.60254037844382,185.88457268119896 146.60254037844382,203.20508075688775 163.92304845413258,213.20508075688775 181.24355652982138,203.20508075688775 191.24355652982138,220.52558883257652 211.24355652982138,220.52558883257655 211.24355652982138,200.52558883257652 193.92304845413258,190.52558883257652 203.9230484541326,173.20508075688775 193.9230484541326,155.88457268119896 183.9230484541326,138.5640646055102 163.92304845413258,138.5640646055102 163.92304845413258,158.5640646055102" stroke="black" stroke-weight="0.1" fill="rgb(255
,255,255)" />
<polygon points="193.92304845413258,190.52558883257652 211.24355652982135,200.52558883257652 211.24355652982135,220.52558883257652 231.24355652982135,220.52558883257652 241.24355652982138,203.20508075688775 258.5640646055101,213.20508075688775 275.8845726811989,203.20508075688775 265.8845726811989,185.884572681199 245.8845726811989,185.884572681199 245.8845726811989,165.88457268119896 228.56406460551014,155.88457268119896 211.24355652982138,145.88457268119896 193.92304845413258,155.88457268119896 203.92304845413258,173.20508075688775" stroke="black" stroke-weight="0.1" fill="rgb(255
,255,255)" />
<polygon points="327.8460969082652,371.769145362398 307.8460969082652,371.769145362398 297.8460969082652,354.4486372867092 280.52558883257643,364.4486372867092 280.52558883257643,384.4486372867092 260.52558883257643,384.44863728670924 250.52558883257643,401.769145362398 267.8460969082652,411.769145362398 285.166604983954,401.769145362398 295.166604983954,419.08965343808677 315.166604983954,419.08965343808677 335.166604983954,419.08965343808677 345.166604983954,401.769145362398 327.8460969082652,391.769145362398" stroke="black" stroke-weight="0.1" fill="rgb(0
,255,255)" />
<polygon points="357.8460969082652,354.44863728670924 347.8460969082652,371.76914536239804 327.8460969082652,371.76914536239804 327.8460969082652,391.76914536239804 345.166604983954,401.76914536239804 335.166604983954,419.08965343808677 345.166604983954,436.41016151377556 362.48711305964275,426.41016151377556 362.48711305964275,406.41016151377556 382.48711305964275,406.41016151377556 392.48711305964275,389.08965343808677 402.48711305964275,371.76914536239804 392.48711305964275,354.44863728670924 375.166604983954,364.44863728670924" stroke="black" stroke-weight="0.1" fill="rgb(220
,220,220)" />
<polygon points="392.48711305964275,389.08965343808677 382.48711305964275,406.41016151377556 362.48711305964275,406.41016151377556 362.48711305964275,426.41016151377556 379.80762113533154,436.41016151377556 369.80762113533154,453.7306695894643 379.80762113533154,471.0511776651531 397.1281292110203,461.0511776651531 397.1281292110203,441.0511776651531 417.1281292110203,441.0511776651531 427.12812921102034,423.7306695894643 437.12812921102034,406.41016151377556 427.1281292110203,389.08965343808677 409.80762113533154,399.08965343808677" stroke="black" stroke-weight="0.1" fill="rgb(255
,242,0)" />
<polygon points="392.4871130596428,354.44863728670924 402.4871130596428,371.76914536239804 392.4871130596428,389.08965343808677 409.8076211353316,399.08965343808677 427.12812921102034,389.08965343808677 437.12812921102034,406.41016151377556 457.12812921102034,406.41016151377556 457.12812921102034,386.41016151377556 439.8076211353316,376.41016151377556 449.8076211353316,359.08965343808677 439.8076211353316,341.76914536239804 429.8076211353316,324.44863728670924 409.8076211353316,324.44863728670924 409.8076211353316,344.44863728670924" stroke="black" stroke-weight="0.1" fill="rgb(0
,255,0)" />
<polygon points="362.4871130596428,337.12812921102045 382.4871130596428,337.12812921102045 392.4871130596428,354.44863728670924 409.8076211353316,344.44863728670924 409.8076211353316,324.44863728670924 429.8076211353316,324.44863728670924 439.8076211353316,307.12812921102045 422.4871130596428,297.12812921102045 405.166604983954,307.12812921102045 395.166604983954,289.80762113533166 375.166604983954,289.80762113533166 355.166604983954,289.80762113533166 345.166604983954,307.12812921102045 362.4871130596428,317.12812921102045" stroke="black" stroke-weight="0.1" fill="rgb(245
,245,220)" />
<polygon points="375.166604983954,289.80762113533166 395.166604983954,289.80762113533166 405.166604983954,307.12812921102045 422.4871130596428,297.12812921102045 422.4871130596428,277.12812921102045 442.4871130596428,277.12812921102045 452.4871130596428,259.80762113533166 435.166604983954,249.80762113533166 417.8460969082652,259.80762113533166 407.8460969082652,242.48711305964287 387.8460969082652,242.48711305964287 367.8460969082652,242.48711305964287 357.8460969082652,259.80762113533166 375.166604983954,269.80762113533166" stroke="black" stroke-weight="0.1" fill="rgb(0
,255,255)" />
<polygon points="345.166604983954,307.12812921102045 355.166604983954,289.80762113533166 375.166604983954,289.8076211353317 375.166604983954,269.8076211353317 357.8460969082653,259.80762113533166 367.8460969082653,242.48711305964292 357.8460969082653,225.16660498395413 340.5255888325765,235.16660498395413 340.5255888325765,255.16660498395413 320.5255888325765,255.16660498395413 310.5255888325765,272.48711305964287 300.5255888325765,289.80762113533166 310.5255888325765,307.12812921102045 327.8460969082652,297.12812921102045" stroke="black" stroke-weight="0.1" fill="rgb(0
,255,0)" />
<polygon points="263.2050807568877,319.8076211353316 273.2050807568877,337.1281292110204 263.2050807568877,354.44863728670913 280.5255888325765,364.4486372867092 297.8460969082652,354.4486372867092 307.8460969082652,371.7691453623979 327.8460969082652,371.7691453623979 327.8460969082652,351.7691453623979 310.52558883257643,341.7691453623979 320.5255888325765,324.44863728670913 310.5255888325765,307.1281292110204 300.5255888325765,289.8076211353316 280.5255888325765,289.8076211353316 280.5255888325765,309.8076211353316" stroke="black" stroke-weight="0.1" fill="rgb(255
,255,255)" />
<polygon points="310.52558883257643,341.7691453623979 327.8460969082652,351.7691453623979 327.8460969082652,371.7691453623979 347.8460969082652,371.7691453623979 357.8460969082652,354.4486372867092 375.16660498395396,364.4486372867092 392.48711305964275,354.4486372867092 382.48711305964275,337.1281292110204 362.48711305964275,337.1281292110204 362.48711305964275,317.1281292110204 345.166604983954,307.1281292110204 327.8460969082652,297.12812921102034 310.52558883257643,307.1281292110204 320.52558883257643,324.44863728670913" stroke="black" stroke-weight="0.1" fill="rgb(255
,255,255)" />
<polygon points="121.24355652982132,332.4871130596429 111.2435565298213,315.16660498395413 121.2435565298213,297.8460969082654 103.92304845413253,287.8460969082654 86.60254037844375,297.8460969082654 76.60254037844375,280.5255888325766 56.602540378443734,280.52558883257666 56.60254037844376,300.52558883257666 73.92304845413253,310.52558883257666 63.92304845413253,327.8460969082654 73.92304845413254,345.1666049839542 83.92304845413256,362.4871130596429 103.92304845413256,362.4871130596429 103.92304845413256,342.4871130596429" stroke="black" stroke-weight="0.1" fill="rgb(0
,255,255)" />
<polygon points="151.24355652982132,349.8076211353317 131.24355652982132,349.8076211353317 121.24355652982132,332.487113059643 103.92304845413254,342.487113059643 103.92304845413256,362.487113059643 83.92304845413254,362.487113059643 73.92304845413256,379.8076211353318 91.24355652982133,389.8076211353317 108.56406460551011,379.8076211353317 118.56406460551011,397.1281292110205 138.5640646055101,397.1281292110205 158.5640646055101,397.1281292110205 168.5640646055101,379.8076211353317 151.24355652982132,369.8076211353317" stroke="black" stroke-weight="0.1" fill="rgb(220
,220,220)" />
<polygon points="138.5640646055101,397.12812921102045 118.56406460551011,397.12812921102045 108.56406460551011,379.8076211353317 91.24355652982133,389.8076211353317 91.24355652982135,409.8076211353317 71.24355652982133,409.8076211353317 61.24355652982135,427.1281292110205 78.56406460551013,437.12812921102045 95.8845726811989,427.12812921102045 105.8845726811989,444.44863728670924 125.8845726811989,444.44863728670924 145.8845726811989,444.44863728670924 155.8845726811989,427.12812921102045 138.5640646055101,417.12812921102045" stroke="black" stroke-weight="0.1" fill="rgb(0
,255,255)" />
<polygon points="168.5640646055101,379.8076211353317 158.5640646055101,397.1281292110205 138.5640646055101,397.1281292110205 138.5640646055101,417.1281292110205 155.8845726811989,427.1281292110205 145.8845726811989,444.4486372867093 155.8845726811989,461.76914536239804 173.20508075688767,451.76914536239804 173.20508075688767,431.76914536239804 193.2050807568877,431.76914536239804 203.20508075688767,414.44863728670924 213.20508075688767,397.12812921102045 203.20508075688764,379.8076211353317 185.88457268119888,389.8076211353317" stroke="black" stroke-weight="0.1" fill="rgb(0
,255,0)" />
<polygon points="168.5640646055101,345.1666049839542 178.5640646055101,362.487113059643 168.56406460551014,379.8076211353317 185.8845726811989,389.8076211353317 203.20508075688767,379.8076211353317 213.2050807568877,397.1281292110205 233.2050807568877,397.12812921102045 233.20508075688767,377.12812921102045 215.8845726811989,367.1281292110205 225.8845726811989,349.8076211353317 215.8845726811989,332.4871130596429 205.88457268119888,315.1666049839542 185.88457268119888,315.1666049839542 185.88457268119888,335.1666049839542" stroke="black" stroke-weight="0.1" fill="rgb(245
,245,220)" />
<polygon points="215.88457268119885,332.4871130596429 225.88457268119885,349.8076211353317 215.88457268119888,367.12812921102045 233.20508075688764,377.12812921102045 250.5255888325764,367.12812921102045 260.52558883257643,384.44863728670924 280.52558883257643,384.4486372867092 280.52558883257643,364.4486372867092 263.20508075688764,354.44863728670924 273.20508075688764,337.12812921102045 263.20508075688764,319.80762113533166 253.2050807568876,302.4871130596429 233.2050807568876,302.4871130596429 233.2050807568876,322.4871130596429" stroke="black" stroke-weight="0.1" fill="rgb(135
,206,250)" />
<polygon points="185.88457268119885,315.16660498395413 205.88457268119885,315.16660498395413 215.88457268119885,332.4871130596429 233.20508075688764,322.4871130596429 233.20508075688764,302.4871130596429 253.20508075688764,302.4871130596429 263.20508075688764,285.16660498395413 245.88457268119885,275.16660498395413 228.56406460551005,285.16660498395413 218.56406460551008,267.84609690826534 198.56406460551008,267.84609690826534 178.56406460551008,267.84609690826534 168.56406460551005,285.16660498395413 185.88457268119885,295.16660498395413" stroke="black" stroke-weight="0.1" fill="rgb(0
,255,0)" />
<polygon points="133.92304845413253,250.52558883257657 123.92304845413253,267.84609690826534 103.92304845413253,267.84609690826534 103.92304845413254,287.84609690826534 121.24355652982132,297.84609690826534 111.24355652982132,315.16660498395413 121.24355652982132,332.48711305964287 138.56406460551008,322.48711305964287 138.56406460551008,302.48711305964287 158.5640646055101,302.48711305964287 168.56406460551008,285.16660498395413 178.56406460551008,267.84609690826534 168.56406460551005,250.52558883257655 151.2435565298213,260.52558883257655" stroke="black" stroke-weight="0.1" fill="rgb(255
,255,255)" />
<polygon points="138.56406460551008,302.48711305964287 138.56406460551008,322.48711305964287 121.24355652982132,332.48711305964287 131.24355652982132,349.80762113533166 151.24355652982132,349.80762113533166 151.24355652982132,369.80762113533166 168.5640646055101,379.80762113533166 178.5640646055101,362.48711305964287 168.56406460551008,345.1666049839541 185.88457268119888,335.1666049839541 185.88457268119888,315.1666049839541 185.88457268119888,295.1666049839541 168.56406460551008,285.1666049839541 158.56406460551008,302.48711305964287" stroke="black" stroke-weight="0.1" fill="rgb(255
,255,255)" />
<polygon points="99.28203230275497,215.88457268119907 89.28203230275497,233.20508075688784 69.28203230275497,233.20508075688787 69.28203230275497,253.20508075688787 86.60254037844375,263.20508075688787 76.60254037844376,280.52558883257666 86.60254037844376,297.8460969082654 103.92304845413253,287.8460969082654 103.92304845413253,267.8460969082654 123.92304845413254,267.8460969082654 133.92304845413253,250.52558883257663 143.92304845413253,233.20508075688784 133.92304845413253,215.88457268119907 116.60254037844375,225.88457268119907" stroke="black" stroke-weight="0.1" fill="rgb(135
,206,250)" />
<polygon points="99.28203230275498,181.24355652982152 109.28203230275498,198.56406460551028 99.28203230275498,215.88457268119907 116.60254037844376,225.88457268119907 133.92304845413253,215.88457268119907 143.92304845413253,233.20508075688784 163.92304845413253,233.20508075688784 163.92304845413253,213.20508075688784 146.60254037844373,203.20508075688784 156.60254037844376,185.88457268119905 146.60254037844376,168.56406460551028 136.60254037844376,151.24355652982152 116.60254037844375,151.24355652982152 116.60254037844376,171.24355652982152" stroke="black" stroke-weight="0.1" fill="rgb(220
,220,220)" />
<polygon points="116.60254037844376,151.24355652982152 136.60254037844376,151.24355652982152 146.60254037844376,168.56406460551028 163.92304845413253,158.56406460551028 163.92304845413253,138.56406460551028 183.92304845413253,138.56406460551028 193.92304845413253,121.24355652982152 176.60254037844376,111.24355652982152 159.282032302755,121.24355652982152 149.282032302755,103.92304845413273 129.282032302755,103.92304845413273 109.28203230275498,103.92304845413273 99.28203230275498,121.24355652982152 116.60254037844376,131.24355652982152" stroke="black" stroke-weight="0.1" fill="rgb(255
,191,191)" />
<polygon points="86.60254037844376,168.56406460551028 96.60254037844376,151.24355652982152 116.60254037844376,151.2435565298215 116.60254037844376,131.2435565298215 99.28203230275498,121.2435565298215 109.28203230275498,103.92304845413273 99.28203230275498,86.60254037844395 81.9615242270662,96.60254037844396 81.9615242270662,116.60254037844396 61.9615242270662,116.60254037844396 51.9615242270662,133.92304845413273 41.96152422706621,151.24355652982152 51.961524227066214,168.56406460551028 69.28203230275498,158.56406460551028" stroke="black" stroke-weight="0.1" fill="rgb(245
,245,220)" />
<polygon points="51.96152422706622,133.92304845413275 61.96152422706622,116.60254037844398 81.96152422706622,116.60254037844398 81.96152422706622,96.60254037844398 64.64101615137744,86.60254037844398 74.64101615137744,69.2820323027552 64.64101615137744,51.96152422706642 47.320508075688664,61.961524227066434 47.320508075688664,81.96152422706643 27.320508075688657,81.96152422706643 17.320508075688657,99.2820323027552 7.3205080756886645,116.60254037844398 17.32050807568867,133.92304845413275 34.64101615137744,123.92304845413275" stroke="black" stroke-weight="0.1" fill="rgb(255
,242,0)" />
<polygon points="51.96152422706619,168.56406460551028 41.9615242270662,151.24355652982152 51.96152422706621,133.92304845413275 34.641016151377436,123.92304845413273 17.320508075688657,133.92304845413273 7.3205080756886645,116.60254037844396 -12.679491924311336,116.60254037844393 -12.679491924311336,136.60254037844396 4.6410161513774355,146.60254037844396 -5.358983848622586,163.92304845413273 4.641016151377407,181.2435565298215 14.6410161513774,198.56406460551028 34.641016151377414,198.56406460551028 34.641016151377414,178.56406460551028" stroke="black" stroke-weight="0.1" fill="rgb(0
,255,0)" />
<polygon points="21.961524227066178,245.88457268119907 41.96152422706618,245.88457268119907 51.96152422706618,263.20508075688787 69.28203230275496,253.20508075688784 69.28203230275496,233.20508075688784 89.28203230275496,233.20508075688784 99.28203230275496,215.88457268119907 81.96152422706618,205.88457268119907 64.6410161513774,215.88457268119907 54.64101615137741,198.56406460551028 34.64101615137741,198.56406460551028 14.641016151377407,198.56406460551028 4.641016151377396,215.88457268119907 21.961524227066178,225.88457268119907" stroke="black" stroke-weight="0.1" fill="rgb(255
,255,255)" />
<polygon points="64.6410161513774,215.88457268119907 81.96152422706618,205.88457268119907 99.28203230275494,215.88457268119907 109.28203230275496,198.5640646055103 99.28203230275496,181.24355652982152 116.60254037844373,171.24355652982155 116.60254037844373,151.24355652982155 96.60254037844372,151.24355652982155 86.60254037844372,168.5640646055103 69.28203230275494,158.56406460551028 51.96152422706617,168.56406460551028 34.6410161513774,178.56406460551028 34.64101615137739,198.5640646055103 54.6410161513774,198.5640646055103" stroke="black" stroke-weight="0.1" fill="rgb(255
,255,255)" />
</g>
</svg>
